<?xml version="1.0" encoding="us-ascii" standalone="no"?><svg xmlns="http://www.w3.org/2000/svg" xmlns:xlink="http://www.w3.org/1999/xlink" contentStyleType="text/css" height="598px" preserveAspectRatio="none" style="width:1098px;height:598px;background:#FFFFFF;" version="1.1" viewBox="0 0 1098 598" width="1098px" zoomAndPan="magnify"><defs/><g><rect fill="none" height="20.9531" style="stroke:none;stroke-width:1.0;" width="1065" x="15" y="12.7451"/><ellipse cx="110" cy="48.6982" fill="#222222" rx="10" ry="10" style="stroke:#222222;stroke-width:1.0;"/><rect fill="#F1F1F1" height="33.9688" rx="12.5" ry="12.5" style="stroke:#181818;stroke-width:0.5;" width="147" x="36.5" y="78.6982"/><text fill="#000000" font-family="sans-serif" font-size="12" lengthAdjust="spacing" textLength="127" x="46.5" y="99.8369">IndicesAdmin.create</text><rect fill="#F1F1F1" height="33.9688" rx="12.5" ry="12.5" style="stroke:#181818;stroke-width:0.5;" width="156" x="32" y="132.667"/><text fill="#000000" font-family="sans-serif" font-size="12" lengthAdjust="spacing" textLength="136" x="42" y="153.8057">IndicesAdmin.execute</text><rect fill="#F1F1F1" height="33.9688" rx="12.5" ry="12.5" style="stroke:#181818;stroke-width:0.5;" width="178" x="21" y="186.6357"/><text fill="#000000" font-family="sans-serif" font-size="12" lengthAdjust="spacing" textLength="158" x="31" y="207.7744">AbstractClient.doExecute</text><line style="stroke:#000000;stroke-width:1.5;" x1="15" x2="15" y1="12.7451" y2="586.417"/><rect fill="#FAEBD7" height="573.6719" style="stroke:#FAEBD7;stroke-width:1.0;" width="133" x="203" y="12.7451"/><rect fill="#F1F1F1" height="33.9688" rx="12.5" ry="12.5" style="stroke:#181818;stroke-width:0.5;" width="111" x="215" y="240.6045"/><text fill="#000000" font-family="sans-serif" font-size="12" lengthAdjust="spacing" textLength="91" x="225" y="261.7432">executeLocally</text><line style="stroke:#000000;stroke-width:1.5;" x1="203" x2="203" y1="12.7451" y2="586.417"/><rect fill="#F1F1F1" height="33.9688" rx="12.5" ry="12.5" style="stroke:#181818;stroke-width:0.5;" width="70" x="389.5" y="294.5732"/><text fill="#000000" font-family="sans-serif" font-size="12" lengthAdjust="spacing" textLength="50" x="399.5" y="315.7119">execute</text><rect fill="#F1F1F1" height="33.9688" rx="12.5" ry="12.5" style="stroke:#181818;stroke-width:0.5;" width="64" x="392.5" y="348.542"/><text fill="#000000" font-family="sans-serif" font-size="12" lengthAdjust="spacing" textLength="44" x="402.5" y="369.6807">proced</text><line style="stroke:#000000;stroke-width:1.5;" x1="336" x2="336" y1="12.7451" y2="586.417"/><rect fill="#FAEBD7" height="573.6719" style="stroke:#FAEBD7;stroke-width:1.0;" width="282" x="511" y="12.7451"/><rect fill="#F1F1F1" height="33.9688" rx="12.5" ry="12.5" style="stroke:#181818;stroke-width:0.5;" width="86" x="610" y="402.5107"/><text fill="#000000" font-family="sans-serif" font-size="12" lengthAdjust="spacing" textLength="66" x="620" y="423.6494">doExecute</text><rect fill="#F1F1F1" height="33.9688" rx="12.5" ry="12.5" style="stroke:#181818;stroke-width:0.5;" width="184" x="561" y="456.4795"/><text fill="#000000" font-family="sans-serif" font-size="12" lengthAdjust="spacing" textLength="164" x="571" y="477.6182">AsyncSingleAction.doStart</text><line style="stroke:#000000;stroke-width:1.5;" x1="511" x2="511" y1="12.7451" y2="586.417"/><rect fill="#F1F1F1" height="33.9688" rx="12.5" ry="12.5" style="stroke:#181818;stroke-width:0.5;" width="118" x="877.5" y="510.4482"/><text fill="#000000" font-family="sans-serif" font-size="12" lengthAdjust="spacing" textLength="98" x="887.5" y="531.5869">masterOpertion</text><ellipse cx="936.5" cy="575.417" fill="none" rx="11" ry="11" style="stroke:#222222;stroke-width:1.0;"/><ellipse cx="936.5" cy="575.417" fill="#222222" rx="6" ry="6" style="stroke:#222222;stroke-width:1.0;"/><line style="stroke:#000000;stroke-width:1.5;" x1="793" x2="793" y1="12.7451" y2="586.417"/><line style="stroke:#000000;stroke-width:1.5;" x1="1078" x2="1078" y1="12.7451" y2="586.417"/><line style="stroke:#181818;stroke-width:1.0;" x1="110" x2="110" y1="58.6982" y2="78.6982"/><polygon fill="#181818" points="106,68.6982,110,78.6982,114,68.6982,110,72.6982" style="stroke:#181818;stroke-width:1.0;"/><line style="stroke:#181818;stroke-width:1.0;" x1="110" x2="110" y1="112.667" y2="132.667"/><polygon fill="#181818" points="106,122.667,110,132.667,114,122.667,110,126.667" style="stroke:#181818;stroke-width:1.0;"/><line style="stroke:#181818;stroke-width:1.0;" x1="110" x2="110" y1="166.6357" y2="186.6357"/><polygon fill="#181818" points="106,176.6357,110,186.6357,114,176.6357,110,180.6357" style="stroke:#181818;stroke-width:1.0;"/><line style="stroke:#181818;stroke-width:1.0;" x1="424.5" x2="424.5" y1="328.542" y2="348.542"/><polygon fill="#181818" points="420.5,338.542,424.5,348.542,428.5,338.542,424.5,342.542" style="stroke:#181818;stroke-width:1.0;"/><line style="stroke:#181818;stroke-width:1.0;" x1="653" x2="653" y1="436.4795" y2="456.4795"/><polygon fill="#181818" points="649,446.4795,653,456.4795,657,446.4795,653,450.4795" style="stroke:#181818;stroke-width:1.0;"/><line style="stroke:#181818;stroke-width:1.0;" x1="936.5" x2="936.5" y1="544.417" y2="564.417"/><polygon fill="#181818" points="932.5,554.417,936.5,564.417,940.5,554.417,936.5,558.417" style="stroke:#181818;stroke-width:1.0;"/><line style="stroke:#181818;stroke-width:1.0;" x1="110" x2="110" y1="220.6045" y2="225.6045"/><line style="stroke:#181818;stroke-width:1.0;" x1="110" x2="270.5" y1="225.6045" y2="225.6045"/><line style="stroke:#181818;stroke-width:1.0;" x1="270.5" x2="270.5" y1="225.6045" y2="240.6045"/><polygon fill="#181818" points="266.5,230.6045,270.5,240.6045,274.5,230.6045,270.5,234.6045" style="stroke:#181818;stroke-width:1.0;"/><line style="stroke:#181818;stroke-width:1.0;" x1="270.5" x2="270.5" y1="274.5732" y2="279.5732"/><line style="stroke:#181818;stroke-width:1.0;" x1="270.5" x2="424.5" y1="279.5732" y2="279.5732"/><line style="stroke:#181818;stroke-width:1.0;" x1="424.5" x2="424.5" y1="279.5732" y2="294.5732"/><polygon fill="#181818" points="420.5,284.5732,424.5,294.5732,428.5,284.5732,424.5,288.5732" style="stroke:#181818;stroke-width:1.0;"/><line style="stroke:#181818;stroke-width:1.0;" x1="424.5" x2="424.5" y1="382.5107" y2="387.5107"/><line style="stroke:#181818;stroke-width:1.0;" x1="424.5" x2="653" y1="387.5107" y2="387.5107"/><line style="stroke:#181818;stroke-width:1.0;" x1="653" x2="653" y1="387.5107" y2="402.5107"/><polygon fill="#181818" points="649,392.5107,653,402.5107,657,392.5107,653,396.5107" style="stroke:#181818;stroke-width:1.0;"/><line style="stroke:#181818;stroke-width:1.0;" x1="653" x2="653" y1="490.4482" y2="495.4482"/><line style="stroke:#181818;stroke-width:1.0;" x1="653" x2="936.5" y1="495.4482" y2="495.4482"/><line style="stroke:#181818;stroke-width:1.0;" x1="936.5" x2="936.5" y1="495.4482" y2="510.4482"/><polygon fill="#181818" points="932.5,500.4482,936.5,510.4482,940.5,500.4482,936.5,504.4482" style="stroke:#181818;stroke-width:1.0;"/><text fill="#000000" font-family="sans-serif" font-size="18" lengthAdjust="spacing" textLength="124" x="47" y="29.4531">AbstractClient</text><text fill="#000000" font-family="sans-serif" font-size="18" lengthAdjust="spacing" textLength="99" x="220" y="29.4531">NodeClient</text><text fill="#000000" font-family="sans-serif" font-size="18" lengthAdjust="spacing" textLength="141" x="353" y="29.4531">TransportAciton</text><text fill="#000000" font-family="sans-serif" font-size="18" lengthAdjust="spacing" textLength="248" x="528" y="29.4531">TransportMasterNodeAction</text><text fill="#000000" font-family="sans-serif" font-size="18" lengthAdjust="spacing" textLength="251" x="810" y="29.4531">TransportCreateIndexAction</text></g></svg>