<?xml version="1.0" encoding="us-ascii" standalone="no"?><svg xmlns="http://www.w3.org/2000/svg" xmlns:xlink="http://www.w3.org/1999/xlink" contentStyleType="text/css" height="544px" preserveAspectRatio="none" style="width:1170px;height:544px;background:#FFFFFF;" version="1.1" viewBox="0 0 1170 544" width="1170px" zoomAndPan="magnify"><defs/><g><rect fill="none" height="20.9531" style="stroke:none;stroke-width:1.0;" width="1137" x="15" y="12.7451"/><ellipse cx="154" cy="48.6982" fill="#222222" rx="10" ry="10" style="stroke:#222222;stroke-width:1.0;"/><rect fill="#F1F1F1" height="33.9688" rx="12.5" ry="12.5" style="stroke:#181818;stroke-width:0.5;" width="110" x="99" y="78.6982"/><text fill="#000000" font-family="sans-serif" font-size="12" lengthAdjust="spacing" textLength="90" x="109" y="99.8369">channelRead0</text><line style="stroke:#000000;stroke-width:1.5;" x1="15" x2="15" y1="12.7451" y2="532.4482"/><rect fill="#FAEBD7" height="519.7031" style="stroke:#FAEBD7;stroke-width:1.0;" width="275" x="291" y="12.7451"/><rect fill="#F1F1F1" height="33.9688" rx="12.5" ry="12.5" style="stroke:#181818;stroke-width:0.5;" width="128" x="365.5" y="132.667"/><text fill="#000000" font-family="sans-serif" font-size="12" lengthAdjust="spacing" textLength="108" x="375.5" y="153.8057">incomingRequest</text><rect fill="#F1F1F1" height="33.9688" rx="12.5" ry="12.5" style="stroke:#181818;stroke-width:0.5;" width="171" x="344" y="186.6357"/><text fill="#000000" font-family="sans-serif" font-size="12" lengthAdjust="spacing" textLength="151" x="354" y="207.7744">handlelncomingRequest</text><rect fill="#F1F1F1" height="33.9688" rx="12.5" ry="12.5" style="stroke:#181818;stroke-width:0.5;" width="123" x="368" y="240.6045"/><text fill="#000000" font-family="sans-serif" font-size="12" lengthAdjust="spacing" textLength="103" x="378" y="261.7432">dspatchRequest</text><line style="stroke:#000000;stroke-width:1.5;" x1="291" x2="291" y1="12.7451" y2="532.4482"/><rect fill="#F1F1F1" height="33.9688" rx="12.5" ry="12.5" style="stroke:#181818;stroke-width:0.5;" width="106" x="595.5" y="294.5732"/><text fill="#000000" font-family="sans-serif" font-size="12" lengthAdjust="spacing" textLength="86" x="605.5" y="315.7119">tryAllHandlers</text><rect fill="#F1F1F1" height="33.9688" rx="12.5" ry="12.5" style="stroke:#181818;stroke-width:0.5;" width="119" x="589" y="348.542"/><text fill="#000000" font-family="sans-serif" font-size="12" lengthAdjust="spacing" textLength="99" x="599" y="369.6807">dipatchRequest</text><line style="stroke:#000000;stroke-width:1.5;" x1="566" x2="566" y1="12.7451" y2="532.4482"/><rect fill="#FAEBD7" height="519.7031" style="stroke:#FAEBD7;stroke-width:1.0;" width="184" x="729" y="12.7451"/><rect fill="#F1F1F1" height="33.9688" rx="12.5" ry="12.5" style="stroke:#181818;stroke-width:0.5;" width="115" x="764.5" y="402.5107"/><text fill="#000000" font-family="sans-serif" font-size="12" lengthAdjust="spacing" textLength="95" x="774.5" y="423.6494">handleRequest</text><line style="stroke:#000000;stroke-width:1.5;" x1="729" x2="729" y1="12.7451" y2="532.4482"/><rect fill="#F1F1F1" height="33.9688" rx="12.5" ry="12.5" style="stroke:#181818;stroke-width:0.5;" width="122" x="971.5" y="456.4795"/><text fill="#000000" font-family="sans-serif" font-size="12" lengthAdjust="spacing" textLength="102" x="981.5" y="477.6182">prepareRequest</text><ellipse cx="1032.5" cy="521.4482" fill="none" rx="11" ry="11" style="stroke:#222222;stroke-width:1.0;"/><ellipse cx="1032.5" cy="521.4482" fill="#222222" rx="6" ry="6" style="stroke:#222222;stroke-width:1.0;"/><line style="stroke:#000000;stroke-width:1.5;" x1="913" x2="913" y1="12.7451" y2="532.4482"/><line style="stroke:#000000;stroke-width:1.5;" x1="1150" x2="1150" y1="12.7451" y2="532.4482"/><line style="stroke:#181818;stroke-width:1.0;" x1="154" x2="154" y1="58.6982" y2="78.6982"/><polygon fill="#181818" points="150,68.6982,154,78.6982,158,68.6982,154,72.6982" style="stroke:#181818;stroke-width:1.0;"/><line style="stroke:#181818;stroke-width:1.0;" x1="429.5" x2="429.5" y1="166.6357" y2="186.6357"/><polygon fill="#181818" points="425.5,176.6357,429.5,186.6357,433.5,176.6357,429.5,180.6357" style="stroke:#181818;stroke-width:1.0;"/><line style="stroke:#181818;stroke-width:1.0;" x1="429.5" x2="429.5" y1="220.6045" y2="240.6045"/><polygon fill="#181818" points="425.5,230.6045,429.5,240.6045,433.5,230.6045,429.5,234.6045" style="stroke:#181818;stroke-width:1.0;"/><line style="stroke:#181818;stroke-width:1.0;" x1="648.5" x2="648.5" y1="328.542" y2="348.542"/><polygon fill="#181818" points="644.5,338.542,648.5,348.542,652.5,338.542,648.5,342.542" style="stroke:#181818;stroke-width:1.0;"/><line style="stroke:#181818;stroke-width:1.0;" x1="1032.5" x2="1032.5" y1="490.4482" y2="510.4482"/><polygon fill="#181818" points="1028.5,500.4482,1032.5,510.4482,1036.5,500.4482,1032.5,504.4482" style="stroke:#181818;stroke-width:1.0;"/><line style="stroke:#181818;stroke-width:1.0;" x1="154" x2="154" y1="112.667" y2="117.667"/><line style="stroke:#181818;stroke-width:1.0;" x1="154" x2="429.5" y1="117.667" y2="117.667"/><line style="stroke:#181818;stroke-width:1.0;" x1="429.5" x2="429.5" y1="117.667" y2="132.667"/><polygon fill="#181818" points="425.5,122.667,429.5,132.667,433.5,122.667,429.5,126.667" style="stroke:#181818;stroke-width:1.0;"/><line style="stroke:#181818;stroke-width:1.0;" x1="429.5" x2="429.5" y1="274.5732" y2="279.5732"/><line style="stroke:#181818;stroke-width:1.0;" x1="429.5" x2="648.5" y1="279.5732" y2="279.5732"/><line style="stroke:#181818;stroke-width:1.0;" x1="648.5" x2="648.5" y1="279.5732" y2="294.5732"/><polygon fill="#181818" points="644.5,284.5732,648.5,294.5732,652.5,284.5732,648.5,288.5732" style="stroke:#181818;stroke-width:1.0;"/><line style="stroke:#181818;stroke-width:1.0;" x1="648.5" x2="648.5" y1="382.5107" y2="387.5107"/><line style="stroke:#181818;stroke-width:1.0;" x1="648.5" x2="822" y1="387.5107" y2="387.5107"/><line style="stroke:#181818;stroke-width:1.0;" x1="822" x2="822" y1="387.5107" y2="402.5107"/><polygon fill="#181818" points="818,392.5107,822,402.5107,826,392.5107,822,396.5107" style="stroke:#181818;stroke-width:1.0;"/><line style="stroke:#181818;stroke-width:1.0;" x1="822" x2="822" y1="436.4795" y2="441.4795"/><line style="stroke:#181818;stroke-width:1.0;" x1="822" x2="1032.5" y1="441.4795" y2="441.4795"/><line style="stroke:#181818;stroke-width:1.0;" x1="1032.5" x2="1032.5" y1="441.4795" y2="456.4795"/><polygon fill="#181818" points="1028.5,446.4795,1032.5,456.4795,1036.5,446.4795,1032.5,450.4795" style="stroke:#181818;stroke-width:1.0;"/><text fill="#000000" font-family="sans-serif" font-size="18" lengthAdjust="spacing" textLength="242" x="32" y="29.4531">Netty4HttpRequestHandler</text><text fill="#000000" font-family="sans-serif" font-size="18" lengthAdjust="spacing" textLength="241" x="308" y="29.4531">AbstactHttpServerTranspot</text><text fill="#000000" font-family="sans-serif" font-size="18" lengthAdjust="spacing" textLength="129" x="583" y="29.4531">RestController</text><text fill="#000000" font-family="sans-serif" font-size="18" lengthAdjust="spacing" textLength="150" x="746" y="29.4531">BaseRestHandler</text><text fill="#000000" font-family="sans-serif" font-size="18" lengthAdjust="spacing" textLength="203" x="930" y="29.4531">RestCreatelndexAction</text></g></svg>